<mxfile host="app.diagrams.net" modified="2023-12-15T10:48:23.256Z" agent="Mozilla/5.0 (Windows NT 10.0; Win64; x64; rv:120.0) Gecko/20100101 Firefox/120.0" etag="VDPpicfV6oHjfayDmeZN" version="22.1.9" type="device">
  <diagram id="VIAb_6y9v0oeqei7CUIl" name="Страница 1">
    <mxGraphModel dx="1434" dy="782" grid="1" gridSize="10" guides="1" tooltips="1" connect="1" arrows="1" fold="1" page="1" pageScale="1" pageWidth="1169" pageHeight="827" math="0" shadow="0">
      <root>
        <mxCell id="0" />
        <mxCell id="1" parent="0" />
        <mxCell id="Ou0Bo5Lg-RuzPAXA64Kz-1" value="&lt;div&gt;Администратор&lt;/div&gt;&lt;div&gt;&lt;br&gt;&lt;/div&gt;" style="shape=umlActor;verticalLabelPosition=bottom;verticalAlign=top;html=1;outlineConnect=0;" parent="1" vertex="1">
          <mxGeometry x="400" y="380" width="30" height="60" as="geometry" />
        </mxCell>
        <mxCell id="Ou0Bo5Lg-RuzPAXA64Kz-2" value="" style="shape=umlActor;verticalLabelPosition=bottom;verticalAlign=top;html=1;outlineConnect=0;" parent="1" vertex="1">
          <mxGeometry x="400" y="380" width="30" height="60" as="geometry" />
        </mxCell>
        <mxCell id="Ou0Bo5Lg-RuzPAXA64Kz-5" value="Аутифицированный" style="shape=umlActor;verticalLabelPosition=bottom;verticalAlign=top;html=1;outlineConnect=0;" parent="1" vertex="1">
          <mxGeometry x="400" y="260" width="30" height="60" as="geometry" />
        </mxCell>
        <mxCell id="Ou0Bo5Lg-RuzPAXA64Kz-7" value="Пользователь&lt;br&gt;" style="shape=umlActor;verticalLabelPosition=bottom;verticalAlign=top;html=1;outlineConnect=0;" parent="1" vertex="1">
          <mxGeometry x="400" y="140" width="30" height="60" as="geometry" />
        </mxCell>
        <mxCell id="Ou0Bo5Lg-RuzPAXA64Kz-11" value="" style="endArrow=block;html=1;rounded=0;startFill=0;endFill=0;exitX=0.5;exitY=0;exitDx=0;exitDy=0;exitPerimeter=0;" parent="1" source="Ou0Bo5Lg-RuzPAXA64Kz-2" edge="1">
          <mxGeometry width="50" height="50" relative="1" as="geometry">
            <mxPoint x="390" y="430" as="sourcePoint" />
            <mxPoint x="415" y="340" as="targetPoint" />
          </mxGeometry>
        </mxCell>
        <mxCell id="Ou0Bo5Lg-RuzPAXA64Kz-16" value="Вход" style="ellipse;whiteSpace=wrap;html=1;" parent="1" vertex="1">
          <mxGeometry x="298" y="131" width="70" height="30" as="geometry" />
        </mxCell>
        <mxCell id="Ou0Bo5Lg-RuzPAXA64Kz-18" value="" style="endArrow=none;html=1;rounded=0;entryX=0.25;entryY=0.1;entryDx=0;entryDy=0;entryPerimeter=0;" parent="1" edge="1">
          <mxGeometry width="50" height="50" relative="1" as="geometry">
            <mxPoint x="369" y="146" as="sourcePoint" />
            <mxPoint x="399.5" y="146" as="targetPoint" />
          </mxGeometry>
        </mxCell>
        <mxCell id="_UozKoo6z7qoIZY8arhN-6" value="&lt;div&gt;Просмотр статистики&lt;/div&gt;" style="ellipse;whiteSpace=wrap;html=1;" parent="1" vertex="1">
          <mxGeometry x="500" y="230" width="100" height="40" as="geometry" />
        </mxCell>
        <mxCell id="_UozKoo6z7qoIZY8arhN-7" value="Редактирования&lt;br&gt;заявок" style="ellipse;whiteSpace=wrap;html=1;" parent="1" vertex="1">
          <mxGeometry x="228" y="225" width="120" height="50" as="geometry" />
        </mxCell>
        <mxCell id="_UozKoo6z7qoIZY8arhN-12" value="" style="endArrow=none;html=1;rounded=0;" parent="1" edge="1">
          <mxGeometry width="50" height="50" relative="1" as="geometry">
            <mxPoint x="350" y="250" as="sourcePoint" />
            <mxPoint x="400" y="270" as="targetPoint" />
            <Array as="points">
              <mxPoint x="400" y="250" />
            </Array>
          </mxGeometry>
        </mxCell>
        <mxCell id="_UozKoo6z7qoIZY8arhN-23" value="" style="endArrow=none;html=1;rounded=0;entryX=0;entryY=0.5;entryDx=0;entryDy=0;" parent="1" target="_UozKoo6z7qoIZY8arhN-6" edge="1">
          <mxGeometry width="50" height="50" relative="1" as="geometry">
            <mxPoint x="430" y="270" as="sourcePoint" />
            <mxPoint x="500" y="389.6" as="targetPoint" />
            <Array as="points">
              <mxPoint x="430" y="250" />
            </Array>
          </mxGeometry>
        </mxCell>
        <mxCell id="_UozKoo6z7qoIZY8arhN-24" value="Добавление пользователей" style="ellipse;whiteSpace=wrap;html=1;" parent="1" vertex="1">
          <mxGeometry x="480" y="335" width="100" height="45" as="geometry" />
        </mxCell>
        <mxCell id="_UozKoo6z7qoIZY8arhN-25" value="" style="endArrow=none;html=1;rounded=0;" parent="1" edge="1">
          <mxGeometry width="50" height="50" relative="1" as="geometry">
            <mxPoint x="430" y="409.5" as="sourcePoint" />
            <mxPoint x="480" y="410" as="targetPoint" />
          </mxGeometry>
        </mxCell>
        <mxCell id="H2BleIMrabxSaI1y6BuE-3" value="Добавления&lt;br/&gt;заявок " style="ellipse;whiteSpace=wrap;html=1;" parent="1" vertex="1">
          <mxGeometry x="230" y="340" width="100" height="40" as="geometry" />
        </mxCell>
        <mxCell id="H2BleIMrabxSaI1y6BuE-4" value="" style="endArrow=none;html=1;rounded=0;entryX=0;entryY=0.5;entryDx=0;entryDy=0;" parent="1" edge="1">
          <mxGeometry width="50" height="50" relative="1" as="geometry">
            <mxPoint x="400" y="389.5999999999999" as="sourcePoint" />
            <mxPoint x="330" y="360" as="targetPoint" />
            <Array as="points">
              <mxPoint x="400" y="360" />
            </Array>
          </mxGeometry>
        </mxCell>
        <mxCell id="H2BleIMrabxSaI1y6BuE-8" value="" style="endArrow=none;html=1;rounded=0;exitX=1;exitY=0.5;exitDx=0;exitDy=0;" parent="1" edge="1" source="H2BleIMrabxSaI1y6BuE-10">
          <mxGeometry width="50" height="50" relative="1" as="geometry">
            <mxPoint x="330" y="409.5" as="sourcePoint" />
            <mxPoint x="400" y="409.5" as="targetPoint" />
          </mxGeometry>
        </mxCell>
        <mxCell id="H2BleIMrabxSaI1y6BuE-10" value="назначения&lt;br/&gt;ответственных за выполнение работ" style="ellipse;whiteSpace=wrap;html=1;" parent="1" vertex="1">
          <mxGeometry x="230" y="387.5" width="120" height="70" as="geometry" />
        </mxCell>
        <mxCell id="eVI_DAPr14P69O8tKlzn-1" value="" style="endArrow=block;html=1;rounded=0;startFill=0;endFill=0;exitX=0.5;exitY=0;exitDx=0;exitDy=0;exitPerimeter=0;" edge="1" parent="1" source="Ou0Bo5Lg-RuzPAXA64Kz-5">
          <mxGeometry width="50" height="50" relative="1" as="geometry">
            <mxPoint x="425" y="390" as="sourcePoint" />
            <mxPoint x="415" y="220" as="targetPoint" />
          </mxGeometry>
        </mxCell>
        <mxCell id="eVI_DAPr14P69O8tKlzn-2" value="" style="endArrow=none;html=1;rounded=0;entryX=0;entryY=0.5;entryDx=0;entryDy=0;" edge="1" parent="1" target="_UozKoo6z7qoIZY8arhN-24">
          <mxGeometry width="50" height="50" relative="1" as="geometry">
            <mxPoint x="430" y="387.4999999999999" as="sourcePoint" />
            <mxPoint x="500" y="360" as="targetPoint" />
            <Array as="points">
              <mxPoint x="430" y="357.9" />
            </Array>
          </mxGeometry>
        </mxCell>
        <mxCell id="eVI_DAPr14P69O8tKlzn-3" value="Редактирование пользователей" style="ellipse;whiteSpace=wrap;html=1;" vertex="1" parent="1">
          <mxGeometry x="485" y="387.5" width="115" height="45" as="geometry" />
        </mxCell>
      </root>
    </mxGraphModel>
  </diagram>
</mxfile>
